
***** Barbarossa.2009.x264.AC3(5.1).Nordic.mkv-Zen_Bud *****

Format                           : Matroska
File size                        : 2.11 GiB
Duration                         : 2h 3mn
Overall bit rate                 : 2 438 Kbps
Writing application              : HandBrake svn3534
Writing library                  : libmkv 0.6.4.1

Video

Format                           : AVC
Duration                         : 2h 3mn
Bit rate                         : 1 942 Kbps
Width                            : 700 pixels
Height                           : 436 pixels
Display aspect ratio             : 2.25:1
Stream size                      : 1.68 GiB (80%)
Writing library                  : x264 core 104


Format                           : AC-3
Duration                         : 2h 3mn
Bit rate                         : 448 Kbps
Channel(s)                       : 6 channels
Channel positions                : Front: L C R, Side: L R, LFE
Sampling rate                    : 48.0 KHz
Bit depth                        : 16 bits
Stream size                      : 397 MiB (18%)
Language                         : English

Text #1
Language                         : Norwegian

Text #2
Language                         : Danish

Text #3
Language                         : Finnish

Text #4
Language                         : Swedish

Menu
00:00:00.000                     : Chapter  1
00:10:00.880                     : Chapter  2


